<svg width="900" height="520" viewBox="0 0 900 520" fill="none" xmlns="http://www.w3.org/2000/svg">
  <rect width="900" height="520" rx="18" fill="#0E1629"/>
  <rect x="24" y="24" width="852" height="60" rx="10" fill="#121D36"/>
  <rect x="40" y="42" width="180" height="24" rx="6" fill="#1B2A4C"/>
  <rect x="690" y="42" width="80" height="24" rx="6" fill="#2E5EC5"/>
  <rect x="780" y="42" width="80" height="24" rx="6" fill="#2D8E6D"/>

  <rect x="24" y="102" width="280" height="180" rx="12" fill="#121D36"/>
  <rect x="320" y="102" width="280" height="180" rx="12" fill="#121D36"/>
  <rect x="616" y="102" width="260" height="180" rx="12" fill="#121D36"/>

  <polyline points="42,245 90,210 140,225 190,170 240,195 286,150" stroke="#4F8EF7" stroke-width="4" fill="none"/>
  <polyline points="338,225 380,205 430,210 482,160 532,178 582,140" stroke="#10D97C" stroke-width="4" fill="none"/>

  <rect x="640" y="130" width="212" height="16" rx="5" fill="#1D2A4A"/>
  <rect x="640" y="156" width="180" height="14" rx="5" fill="#1A2540"/>
  <rect x="640" y="180" width="200" height="14" rx="5" fill="#1A2540"/>
  <rect x="640" y="204" width="160" height="14" rx="5" fill="#1A2540"/>

  <rect x="24" y="300" width="852" height="196" rx="12" fill="#121D36"/>
  <rect x="44" y="322" width="220" height="150" rx="10" fill="#19284A"/>
  <rect x="280" y="322" width="220" height="150" rx="10" fill="#19284A"/>
  <rect x="516" y="322" width="340" height="150" rx="10" fill="#19284A"/>

  <rect x="58" y="338" width="100" height="12" rx="4" fill="#2C4D94"/>
  <rect x="294" y="338" width="120" height="12" rx="4" fill="#2C4D94"/>
  <rect x="530" y="338" width="120" height="12" rx="4" fill="#2C4D94"/>

  <rect x="58" y="362" width="180" height="10" rx="4" fill="#22355E"/>
  <rect x="58" y="382" width="170" height="10" rx="4" fill="#22355E"/>
  <rect x="58" y="402" width="160" height="10" rx="4" fill="#22355E"/>

  <rect x="294" y="362" width="190" height="10" rx="4" fill="#22355E"/>
  <rect x="294" y="382" width="170" height="10" rx="4" fill="#22355E"/>
  <rect x="294" y="402" width="150" height="10" rx="4" fill="#22355E"/>

  <polyline points="534,430 580,410 620,420 662,380 706,392 750,355 836,365" stroke="#4F8EF7" stroke-width="4" fill="none"/>
</svg>
