<svg width="860" height="460" viewBox="0 0 860 460" fill="none" xmlns="http://www.w3.org/2000/svg">
  <rect width="860" height="460" rx="18" fill="#0E1629"/>
  <rect x="40" y="44" width="180" height="86" rx="12" fill="#172541"/>
  <rect x="340" y="44" width="180" height="86" rx="12" fill="#172541"/>
  <rect x="640" y="44" width="180" height="86" rx="12" fill="#172541"/>

  <rect x="50" y="58" width="120" height="12" rx="4" fill="#2A4787"/>
  <rect x="50" y="82" width="148" height="10" rx="4" fill="#22365F"/>
  <rect x="50" y="100" width="126" height="10" rx="4" fill="#22365F"/>

  <rect x="350" y="58" width="120" height="12" rx="4" fill="#2A4787"/>
  <rect x="350" y="82" width="148" height="10" rx="4" fill="#22365F"/>
  <rect x="350" y="100" width="126" height="10" rx="4" fill="#22365F"/>

  <rect x="650" y="58" width="120" height="12" rx="4" fill="#2A4787"/>
  <rect x="650" y="82" width="148" height="10" rx="4" fill="#22365F"/>
  <rect x="650" y="100" width="126" height="10" rx="4" fill="#22365F"/>

  <path d="M230 86H330" stroke="#4F8EF7" stroke-width="4" stroke-linecap="round"/>
  <path d="M530 86H630" stroke="#4F8EF7" stroke-width="4" stroke-linecap="round"/>
  <path d="M322 78L336 86L322 94" stroke="#4F8EF7" stroke-width="4" stroke-linecap="round" stroke-linejoin="round"/>
  <path d="M622 78L636 86L622 94" stroke="#4F8EF7" stroke-width="4" stroke-linecap="round" stroke-linejoin="round"/>

  <rect x="40" y="170" width="780" height="250" rx="14" fill="#121D36"/>
  <rect x="70" y="202" width="220" height="180" rx="12" fill="#1A2A4B"/>
  <rect x="320" y="202" width="220" height="180" rx="12" fill="#1A2A4B"/>
  <rect x="570" y="202" width="220" height="180" rx="12" fill="#1A2A4B"/>

  <circle cx="112" cy="236" r="16" fill="#2E5EC5"/>
  <circle cx="362" cy="236" r="16" fill="#2E5EC5"/>
  <circle cx="612" cy="236" r="16" fill="#2E5EC5"/>

  <rect x="98" y="270" width="160" height="12" rx="4" fill="#29457F"/>
  <rect x="98" y="292" width="140" height="10" rx="4" fill="#22365E"/>
  <rect x="98" y="311" width="150" height="10" rx="4" fill="#22365E"/>

  <rect x="348" y="270" width="160" height="12" rx="4" fill="#29457F"/>
  <rect x="348" y="292" width="140" height="10" rx="4" fill="#22365E"/>
  <rect x="348" y="311" width="150" height="10" rx="4" fill="#22365E"/>

  <rect x="598" y="270" width="160" height="12" rx="4" fill="#29457F"/>
  <rect x="598" y="292" width="140" height="10" rx="4" fill="#22365E"/>
  <rect x="598" y="311" width="150" height="10" rx="4" fill="#22365E"/>
</svg>
